<svg xmlns="http://www.w3.org/2000/svg" xmlns:xlink="http://www.w3.org/1999/xlink" width="800" zoomAndPan="magnify" viewBox="0 0 600 1499.999933" height="2000" preserveAspectRatio="xMidYMid meet" version="1.0"><defs><filter x="0%" y="0%" width="100%" height="100%" id="b7825ba565"><feColorMatrix values="0 0 0 0 1 0 0 0 0 1 0 0 0 0 1 0 0 0 1 0" color-interpolation-filters="sRGB"/></filter><mask id="9f2547da5d"><g filter="url(#b7825ba565)"><rect x="-60" width="720" fill="#000000" y="-149.999993" height="1799.99992" fill-opacity="0.55"/></g></mask><clipPath id="59ea5d3ac9"><path d="M 1 1 L 465.25 1 L 465.25 466 L 1 466 Z M 1 1 " clip-rule="nonzero"/></clipPath><clipPath id="0638619cfc"><rect x="0" width="466" y="0" height="466"/></clipPath><mask id="bf59a8e234"><g filter="url(#b7825ba565)"><rect x="-60" width="720" fill="#000000" y="-149.999993" height="1799.99992" fill-opacity="0.55"/></g></mask><clipPath id="65f7cbc439"><path d="M 217 0.832031 L 252 0.832031 L 252 114 L 217 114 Z M 217 0.832031 " clip-rule="nonzero"/></clipPath><clipPath id="2cce6fef63"><path d="M 355 217 L 468.25 217 L 468.25 252 L 355 252 Z M 355 217 " clip-rule="nonzero"/></clipPath><clipPath id="e9dd972d73"><path d="M 217 355 L 252 355 L 252 468.082031 L 217 468.082031 Z M 217 355 " clip-rule="nonzero"/></clipPath><clipPath id="c31752ada9"><path d="M 1 217 L 114 217 L 114 252 L 1 252 Z M 1 217 " clip-rule="nonzero"/></clipPath><clipPath id="7bb312b78d"><rect x="0" width="470" y="0" height="470"/></clipPath></defs><g mask="url(#9f2547da5d)"><g transform="matrix(1, 0, 0, 1, 62, 68)"><g clip-path="url(#0638619cfc)"><g clip-path="url(#59ea5d3ac9)"><path fill="#404040" d="M 465.449219 255.265625 C 465.101562 258.894531 464.667969 262.511719 464.148438 266.121094 C 463.628906 269.730469 463.027344 273.324219 462.339844 276.902344 C 461.652344 280.484375 460.878906 284.042969 460.023438 287.589844 C 459.167969 291.132812 458.230469 294.652344 457.210938 298.152344 C 456.1875 301.652344 455.085938 305.125 453.902344 308.574219 C 452.71875 312.019531 451.453125 315.4375 450.105469 318.824219 C 448.761719 322.214844 447.335938 325.566406 445.835938 328.890625 C 444.332031 332.210938 442.75 335.492188 441.09375 338.738281 C 439.433594 341.988281 437.703125 345.191406 435.894531 348.355469 C 434.085938 351.523438 432.203125 354.644531 430.246094 357.71875 C 428.292969 360.796875 426.265625 363.824219 424.167969 366.804688 C 422.070312 369.785156 419.902344 372.714844 417.667969 375.59375 C 415.429688 378.472656 413.128906 381.300781 410.761719 384.070312 C 408.390625 386.839844 405.960938 389.554688 403.460938 392.210938 C 400.964844 394.867188 398.410156 397.464844 395.789062 400 C 393.171875 402.535156 390.496094 405.007812 387.761719 407.417969 C 385.023438 409.828125 382.234375 412.171875 379.390625 414.449219 C 376.542969 416.730469 373.648438 418.941406 370.699219 421.082031 C 367.75 423.226562 364.75 425.296875 361.703125 427.296875 C 358.65625 429.300781 355.566406 431.226562 352.425781 433.082031 C 349.289062 434.9375 346.109375 436.71875 342.890625 438.425781 C 339.667969 440.132812 336.40625 441.761719 333.109375 443.316406 C 329.8125 444.867188 326.480469 446.339844 323.113281 447.738281 C 319.746094 449.132812 316.347656 450.449219 312.917969 451.683594 C 309.488281 452.921875 306.03125 454.074219 302.546875 455.148438 C 299.0625 456.222656 295.558594 457.214844 292.027344 458.121094 C 288.496094 459.03125 284.945312 459.855469 281.378906 460.597656 C 277.808594 461.335938 274.222656 461.996094 270.625 462.566406 C 267.023438 463.140625 263.414062 463.628906 259.789062 464.03125 C 256.167969 464.433594 252.535156 464.75 248.898438 464.980469 C 245.261719 465.214844 241.621094 465.359375 237.972656 465.421875 C 234.328125 465.480469 230.6875 465.457031 227.042969 465.34375 C 223.398438 465.234375 219.757812 465.039062 216.125 464.753906 C 212.492188 464.472656 208.867188 464.105469 205.25 463.652344 C 201.632812 463.199219 198.027344 462.660156 194.433594 462.039062 C 190.84375 461.417969 187.269531 460.710938 183.710938 459.917969 C 180.152344 459.128906 176.613281 458.253906 173.097656 457.296875 C 169.578125 456.339844 166.085938 455.300781 162.617188 454.179688 C 159.148438 453.058594 155.710938 451.855469 152.296875 450.574219 C 148.886719 449.289062 145.503906 447.925781 142.15625 446.484375 C 138.808594 445.042969 135.5 443.519531 132.222656 441.921875 C 128.945312 440.324219 125.710938 438.648438 122.511719 436.898438 C 119.3125 435.148438 116.160156 433.324219 113.046875 431.425781 C 109.9375 429.527344 106.871094 427.554688 103.851562 425.511719 C 100.835938 423.46875 97.863281 421.355469 94.945312 419.171875 C 92.027344 416.988281 89.160156 414.738281 86.347656 412.421875 C 83.535156 410.101562 80.777344 407.71875 78.074219 405.273438 C 75.375 402.824219 72.730469 400.316406 70.148438 397.742188 C 67.566406 395.171875 65.042969 392.539062 62.585938 389.851562 C 60.125 387.160156 57.730469 384.414062 55.398438 381.609375 C 53.070312 378.804688 50.808594 375.949219 48.609375 373.039062 C 46.414062 370.128906 44.289062 367.167969 42.234375 364.160156 C 40.175781 361.148438 38.191406 358.09375 36.28125 354.992188 C 34.367188 351.886719 32.527344 348.742188 30.765625 345.550781 C 29 342.363281 27.3125 339.132812 25.699219 335.863281 C 24.085938 332.59375 22.550781 329.289062 21.09375 325.945312 C 19.636719 322.605469 18.257812 319.230469 16.960938 315.824219 C 15.664062 312.417969 14.445312 308.984375 13.308594 305.519531 C 12.171875 302.058594 11.117188 298.570312 10.144531 295.054688 C 9.171875 291.542969 8.28125 288.007812 7.476562 284.453125 C 6.671875 280.898438 5.949219 277.328125 5.308594 273.738281 C 4.671875 270.148438 4.117188 266.546875 3.648438 262.933594 C 3.183594 259.316406 2.796875 255.691406 2.5 252.058594 C 2.203125 248.425781 1.988281 244.789062 1.863281 241.144531 C 1.734375 237.503906 1.695312 233.859375 1.738281 230.214844 C 1.785156 226.570312 1.914062 222.925781 2.128906 219.289062 C 2.347656 215.648438 2.648438 212.015625 3.035156 208.390625 C 3.421875 204.769531 3.894531 201.15625 4.449219 197.550781 C 5.007812 193.949219 5.648438 190.363281 6.375 186.789062 C 7.101562 183.21875 7.910156 179.664062 8.800781 176.128906 C 9.695312 172.597656 10.671875 169.085938 11.730469 165.597656 C 12.789062 162.109375 13.925781 158.648438 15.148438 155.210938 C 16.367188 151.777344 17.671875 148.375 19.050781 145 C 20.433594 141.625 21.890625 138.289062 23.429688 134.984375 C 24.96875 131.679688 26.585938 128.410156 28.277344 125.183594 C 29.96875 121.953125 31.734375 118.765625 33.578125 115.621094 C 35.417969 112.476562 37.335938 109.375 39.324219 106.320312 C 41.308594 103.265625 43.371094 100.257812 45.5 97.296875 C 47.628906 94.339844 49.824219 91.433594 52.09375 88.578125 C 54.359375 85.722656 56.691406 82.921875 59.089844 80.175781 C 61.488281 77.429688 63.949219 74.742188 66.472656 72.113281 C 68.996094 69.484375 71.582031 66.914062 74.226562 64.40625 C 76.871094 61.898438 79.574219 59.457031 82.335938 57.074219 C 85.097656 54.695312 87.910156 52.378906 90.78125 50.132812 C 93.648438 47.882812 96.570312 45.703125 99.542969 43.59375 C 102.515625 41.480469 105.535156 39.441406 108.601562 37.472656 C 111.667969 35.503906 114.78125 33.609375 117.9375 31.785156 C 121.097656 29.964844 124.292969 28.214844 127.535156 26.542969 C 130.773438 24.871094 134.050781 23.277344 137.363281 21.761719 C 140.679688 20.242188 144.027344 18.804688 147.40625 17.445312 C 150.789062 16.082031 154.203125 14.804688 157.644531 13.605469 C 161.085938 12.40625 164.554688 11.289062 168.050781 10.25 C 171.546875 9.214844 175.0625 8.261719 178.601562 7.390625 C 182.140625 6.519531 185.699219 5.730469 189.277344 5.027344 C 192.851562 4.324219 196.445312 3.707031 200.050781 3.171875 C 203.65625 2.636719 207.273438 2.1875 210.898438 1.824219 C 211.542969 1.730469 212.191406 1.691406 212.84375 1.710938 C 213.492188 1.730469 214.136719 1.808594 214.777344 1.941406 C 215.414062 2.074219 216.035156 2.261719 216.640625 2.507812 C 217.242188 2.75 217.820312 3.042969 218.375 3.386719 C 218.925781 3.734375 219.445312 4.125 219.929688 4.558594 C 220.410156 4.996094 220.855469 5.472656 221.253906 5.984375 C 221.652344 6.5 222.003906 7.042969 222.308594 7.621094 C 222.613281 8.199219 222.863281 8.796875 223.0625 9.417969 C 223.257812 10.035156 223.402344 10.667969 223.488281 11.316406 C 223.574219 11.960938 223.601562 12.609375 223.574219 13.261719 C 223.546875 13.910156 223.460938 14.554688 223.320312 15.191406 C 223.179688 15.824219 222.984375 16.445312 222.734375 17.046875 C 222.480469 17.648438 222.179688 18.222656 221.828125 18.769531 C 221.476562 19.316406 221.082031 19.832031 220.636719 20.308594 C 220.195312 20.785156 219.714844 21.222656 219.195312 21.613281 C 218.675781 22.007812 218.125 22.351562 217.546875 22.648438 C 214.761719 24.207031 212.023438 25.84375 209.332031 27.558594 C 206.644531 29.277344 204.003906 31.070312 201.417969 32.9375 C 198.832031 34.804688 196.300781 36.746094 193.824219 38.761719 C 191.351562 40.773438 188.933594 42.859375 186.582031 45.011719 C 184.226562 47.164062 181.933594 49.386719 179.707031 51.671875 C 177.480469 53.957031 175.324219 56.304688 173.230469 58.714844 C 171.140625 61.125 169.121094 63.59375 167.171875 66.121094 C 165.222656 68.644531 163.347656 71.226562 161.546875 73.863281 C 159.75 76.496094 158.027344 79.179688 156.382812 81.914062 C 154.734375 84.648438 153.171875 87.429688 151.6875 90.253906 C 150.203125 93.078125 148.800781 95.945312 147.480469 98.847656 C 146.160156 101.753906 144.925781 104.695312 143.777344 107.671875 C 142.628906 110.648438 141.5625 113.65625 140.589844 116.695312 C 139.613281 119.730469 138.722656 122.796875 137.925781 125.882812 C 137.125 128.972656 136.414062 132.082031 135.796875 135.214844 C 135.175781 138.34375 134.644531 141.488281 134.207031 144.648438 C 133.769531 147.8125 133.421875 150.980469 133.164062 154.160156 C 132.910156 157.34375 132.746094 160.527344 132.675781 163.71875 C 132.601562 166.910156 132.621094 170.097656 132.734375 173.285156 C 132.847656 176.476562 133.050781 179.660156 133.347656 182.835938 C 133.640625 186.011719 134.027344 189.179688 134.507812 192.335938 C 134.984375 195.488281 135.554688 198.628906 136.214844 201.75 C 136.875 204.871094 137.621094 207.972656 138.460938 211.050781 C 139.296875 214.128906 140.226562 217.183594 141.238281 220.207031 C 142.253906 223.234375 143.355469 226.226562 144.542969 229.1875 C 145.730469 232.152344 147 235.074219 148.355469 237.964844 C 149.710938 240.851562 151.148438 243.699219 152.671875 246.507812 C 154.191406 249.3125 155.789062 252.070312 157.46875 254.785156 C 159.148438 257.496094 160.90625 260.160156 162.738281 262.773438 C 164.570312 265.382812 166.476562 267.941406 168.457031 270.445312 C 170.4375 272.945312 172.488281 275.386719 174.609375 277.773438 C 176.730469 280.15625 178.921875 282.476562 181.175781 284.734375 C 183.429688 286.992188 185.75 289.183594 188.128906 291.304688 C 190.511719 293.429688 192.953125 295.484375 195.453125 297.464844 C 197.953125 299.449219 200.507812 301.359375 203.117188 303.191406 C 205.730469 305.027344 208.390625 306.789062 211.101562 308.46875 C 213.8125 310.152344 216.570312 311.753906 219.375 313.277344 C 222.179688 314.800781 225.023438 316.238281 227.910156 317.597656 C 230.800781 318.957031 233.722656 320.230469 236.683594 321.421875 C 239.644531 322.613281 242.636719 323.714844 245.660156 324.734375 C 248.6875 325.75 251.738281 326.679688 254.816406 327.519531 C 257.894531 328.363281 260.992188 329.113281 264.113281 329.777344 C 267.234375 330.4375 270.375 331.011719 273.527344 331.492188 C 276.683594 331.972656 279.847656 332.363281 283.027344 332.664062 C 286.203125 332.960938 289.386719 333.167969 292.574219 333.285156 C 295.761719 333.398438 298.953125 333.421875 302.144531 333.355469 C 305.332031 333.285156 308.519531 333.125 311.699219 332.871094 C 314.878906 332.617188 318.050781 332.273438 321.214844 331.839844 C 324.375 331.402344 327.519531 330.878906 330.652344 330.261719 C 333.78125 329.644531 336.890625 328.9375 339.980469 328.140625 C 343.070312 327.34375 346.136719 326.460938 349.175781 325.484375 C 352.214844 324.511719 355.222656 323.453125 358.199219 322.304688 C 361.179688 321.160156 364.121094 319.925781 367.027344 318.609375 C 369.933594 317.292969 372.800781 315.894531 375.625 314.414062 C 378.453125 312.929688 381.234375 311.367188 383.96875 309.726562 C 386.703125 308.085938 389.390625 306.363281 392.027344 304.566406 C 394.664062 302.769531 397.246094 300.898438 399.777344 298.953125 C 402.304688 297.003906 404.773438 294.988281 407.1875 292.898438 C 409.597656 290.808594 411.949219 288.652344 414.238281 286.429688 C 416.523438 284.203125 418.746094 281.917969 420.902344 279.5625 C 423.058594 277.210938 425.144531 274.796875 427.160156 272.324219 C 429.179688 269.851562 431.121094 267.324219 432.992188 264.738281 C 434.863281 262.152344 436.65625 259.515625 438.375 256.828125 C 440.09375 254.140625 441.734375 251.402344 443.296875 248.621094 C 443.648438 248.101562 444.042969 247.617188 444.476562 247.164062 C 444.914062 246.710938 445.382812 246.296875 445.886719 245.921875 C 446.390625 245.550781 446.921875 245.21875 447.480469 244.933594 C 448.039062 244.648438 448.617188 244.410156 449.214844 244.21875 C 449.8125 244.03125 450.421875 243.890625 451.042969 243.804688 C 451.664062 243.714844 452.289062 243.679688 452.917969 243.695312 C 453.542969 243.714844 454.167969 243.78125 454.78125 243.902344 C 455.398438 244.019531 456 244.191406 456.585938 244.410156 C 457.207031 244.539062 457.8125 244.714844 458.402344 244.945312 C 458.996094 245.175781 459.5625 245.457031 460.101562 245.785156 C 460.644531 246.113281 461.15625 246.484375 461.632812 246.898438 C 462.113281 247.316406 462.550781 247.769531 462.953125 248.257812 C 463.355469 248.75 463.710938 249.273438 464.019531 249.824219 C 464.332031 250.375 464.59375 250.949219 464.808594 251.546875 C 465.019531 252.144531 465.179688 252.753906 465.289062 253.378906 C 465.394531 254.003906 465.449219 254.632812 465.449219 255.265625 Z M 465.449219 255.265625 " fill-opacity="1" fill-rule="nonzero"/></g></g></g></g><g mask="url(#bf59a8e234)"><g transform="matrix(1, 0, 0, 1, 59, 963)"><g clip-path="url(#7bb312b78d)"><path fill="#404040" d="M 234.675781 299.960938 C 198.601562 299.960938 169.253906 270.621094 169.253906 234.550781 C 169.253906 198.480469 198.601562 169.140625 234.675781 169.140625 C 270.742188 169.140625 300.085938 198.480469 300.085938 234.550781 C 300.085938 270.621094 270.742188 299.960938 234.675781 299.960938 Z M 234.675781 134.699219 C 179.613281 134.699219 134.820312 179.492188 134.820312 234.550781 C 134.820312 289.605469 179.613281 334.402344 234.675781 334.402344 C 289.726562 334.402344 334.523438 289.605469 334.523438 234.550781 C 334.523438 179.492188 289.726562 134.699219 234.675781 134.699219 " fill-opacity="1" fill-rule="nonzero"/><g clip-path="url(#65f7cbc439)"><path fill="#404040" d="M 234.675781 113.292969 C 244.183594 113.292969 251.890625 105.585938 251.890625 96.074219 L 251.890625 18.085938 C 251.890625 8.578125 244.183594 0.871094 234.675781 0.871094 C 225.160156 0.871094 217.453125 8.578125 217.453125 18.085938 L 217.453125 96.074219 C 217.453125 105.585938 225.160156 113.292969 234.675781 113.292969 " fill-opacity="1" fill-rule="nonzero"/></g><path fill="#404040" d="M 332.585938 153.851562 C 336.992188 153.851562 341.398438 152.171875 344.757812 148.808594 L 399.914062 93.65625 C 406.640625 86.929688 406.640625 76.03125 399.914062 69.304688 C 393.195312 62.578125 382.289062 62.578125 375.566406 69.304688 L 320.414062 124.457031 C 313.6875 131.183594 313.6875 142.082031 320.414062 148.808594 C 323.773438 152.171875 328.179688 153.851562 332.585938 153.851562 " fill-opacity="1" fill-rule="nonzero"/><g clip-path="url(#2cce6fef63)"><path fill="#404040" d="M 451.148438 217.332031 L 373.144531 217.332031 C 363.636719 217.332031 355.925781 225.039062 355.925781 234.550781 C 355.925781 244.058594 363.636719 251.773438 373.144531 251.773438 L 451.148438 251.773438 C 460.664062 251.773438 468.367188 244.058594 468.367188 234.550781 C 468.367188 225.039062 460.664062 217.332031 451.148438 217.332031 " fill-opacity="1" fill-rule="nonzero"/></g><path fill="#404040" d="M 344.757812 320.289062 C 338.039062 313.5625 327.132812 313.566406 320.414062 320.289062 C 313.6875 327.015625 313.6875 337.917969 320.414062 344.640625 L 375.566406 399.792969 C 378.929688 403.160156 383.335938 404.839844 387.742188 404.839844 C 392.148438 404.839844 396.554688 403.15625 399.914062 399.792969 C 406.640625 393.070312 406.640625 382.167969 399.914062 375.445312 L 344.757812 320.289062 " fill-opacity="1" fill-rule="nonzero"/><g clip-path="url(#e9dd972d73)"><path fill="#404040" d="M 234.675781 355.800781 C 225.160156 355.800781 217.453125 363.515625 217.453125 373.023438 L 217.453125 451.027344 C 217.453125 460.539062 225.160156 468.246094 234.675781 468.246094 C 244.183594 468.246094 251.890625 460.539062 251.890625 451.027344 L 251.890625 373.023438 C 251.890625 363.515625 244.183594 355.800781 234.675781 355.800781 " fill-opacity="1" fill-rule="nonzero"/></g><path fill="#404040" d="M 124.582031 320.289062 L 69.429688 375.445312 C 62.703125 382.167969 62.703125 393.070312 69.429688 399.792969 C 72.789062 403.160156 77.195312 404.839844 81.601562 404.839844 C 86.007812 404.839844 90.414062 403.15625 93.777344 399.792969 L 148.929688 344.640625 C 155.65625 337.917969 155.65625 327.015625 148.929688 320.289062 C 142.207031 313.5625 131.304688 313.566406 124.582031 320.289062 " fill-opacity="1" fill-rule="nonzero"/><g clip-path="url(#c31752ada9)"><path fill="#404040" d="M 113.414062 234.550781 C 113.414062 225.039062 105.707031 217.332031 96.195312 217.332031 L 18.1875 217.332031 C 8.679688 217.332031 0.96875 225.039062 0.96875 234.550781 C 0.96875 244.058594 8.679688 251.773438 18.1875 251.773438 L 96.195312 251.773438 C 105.707031 251.773438 113.414062 244.058594 113.414062 234.550781 " fill-opacity="1" fill-rule="nonzero"/></g><path fill="#404040" d="M 124.582031 148.808594 C 127.945312 152.171875 132.351562 153.851562 136.757812 153.851562 C 141.164062 153.851562 145.570312 152.171875 148.929688 148.808594 C 155.65625 142.082031 155.65625 131.183594 148.929688 124.457031 L 93.777344 69.304688 C 87.054688 62.578125 76.152344 62.578125 69.429688 69.304688 C 62.703125 76.03125 62.703125 86.929688 69.429688 93.65625 L 124.582031 148.808594 " fill-opacity="1" fill-rule="nonzero"/></g></g></g></svg>